# xmcd
# 
# Track frame offsets:
#     150
#     20702
#     38370
#     61055
#     84527
#     107310
#     132110
#     152667
#     179017
#     210690
#     227372
#     251287
#     268352
#     295130
# 
# Disc length: 4161
# 
# Revision: 13
# Processed by: cddbd v1.5.2PL0 Copyright (c) Steve Scherf et al.
# Submitted via: fre:ac v1.0.31
# 
DISCID=b4103f0e
DTITLE=Junior Wells - Come On In This House
DYEAR=1996
DGENRE=Blues
TTITLE0=What My Momma Told Me - That's All Right
TTITLE1=Why Are People Like That?
TTITLE2=Trust My Baby
TTITLE3=Million Years Blues
TTITLE4=Give Me One Reason
TTITLE5=Ships On The Ocean
TTITLE6=She Wants To Sell My Monkey
TTITLE7=So Glad You're Mine
TTITLE8=Mystery Train
TTITLE9=I'm Gonna Move To Kansas City
TTITLE10=King Fish Blues
TTITLE11=You Better Watch Yourself
TTITLE12=Come On In This House
TTITLE13=The Goat
EXTD=YEAR: 1996
EXTT0=
EXTT1=
EXTT2=
EXTT3=
EXTT4=
EXTT5=
EXTT6=
EXTT7=
EXTT8=
EXTT9=
EXTT10=
EXTT11=
EXTT12=
EXTT13=
PLAYORDER=
